Coordinates
version=1
nRows=43
nColumns=12
inDegrees=yes

Units are S.I. units (second, meters, Newtons, ...)
Angles are in degrees

endheader
time	SC_y	SC_z	SC_x	AC_y	AC_z	AC_x	GH_y	GH_z	GH_yy	EL_x	PS_y
       0.0              -28.89          26.32          43.28           52.1         -10.42            4.6         -153.3         -18.72          60.46          46.66          37.73
   0.04822              -28.89          26.32          43.28           52.1         -10.42          4.597         -153.3         -18.72          60.44          46.66          37.73
   0.09643              -28.89          26.31          43.28           52.1         -10.41          4.593         -153.3         -18.71          60.43          46.66          37.74
    0.1446              -28.89          26.31          43.28           52.1         -10.41           4.59         -153.3          -18.7          60.42          46.66          37.74
    0.1929              -28.89          26.31          43.27          52.09         -10.41          4.586         -153.3         -18.69           60.4          46.66          37.74
    0.2411              -28.89          26.31          43.27          52.09         -10.41          4.582         -153.3         -18.68          60.38          46.66          37.74
    0.2893              -28.88          26.31          43.27          52.08          -10.4          4.578         -153.3         -18.67          60.37          46.66          37.74
    0.3375              -28.88          26.31          43.27          52.08          -10.4          4.574         -153.3         -18.66          60.35          46.66          37.74
    0.3857              -28.88          26.31          43.26          52.08          -10.4          4.569         -153.3         -18.64          60.33          46.65          37.74
    0.4339              -28.88          26.31          43.26          52.07         -10.39          4.563         -153.3         -18.63          60.31          46.65          37.74
    0.4822              -28.88          26.31          43.26          52.07         -10.39          4.558         -153.3         -18.61          60.28          46.65          37.75
    0.5304              -28.87          26.31          43.25          52.06         -10.38          4.552         -153.3          -18.6          60.26          46.65          37.75
    0.5786              -28.87          26.31          43.25          52.06         -10.38          4.545         -153.3         -18.58          60.23          46.65          37.75
    0.6268              -28.87          26.31          43.24          52.05         -10.38          4.538         -153.3         -18.56           60.2          46.65          37.75
     0.675              -28.87           26.3          43.24          52.04         -10.37          4.531         -153.3         -18.54          60.17          46.65          37.75
    0.7232              -28.86           26.3          43.23          52.04         -10.36          4.523         -153.3         -18.52          60.14          46.64          37.76
    0.7715              -28.86           26.3          43.23          52.03         -10.36          4.514         -153.3          -18.5           60.1          46.64          37.76
    0.8197              -28.85           26.3          43.22          52.02         -10.35          4.504         -153.3         -18.47          60.06          46.64          37.76
    0.8679              -28.85           26.3          43.22          52.01         -10.34          4.493         -153.3         -18.45          60.02          46.64          37.76
    0.9161              -28.85           26.3          43.21           52.0         -10.33          4.482         -153.3         -18.42          59.97          46.64          37.77
    0.9643              -28.84          26.29           43.2          51.99         -10.33          4.469         -153.2         -18.38          59.92          46.63          37.77
     1.013              -28.83          26.29          43.19          51.97         -10.32          4.455         -153.2         -18.35          59.86          46.63          37.78
     1.061              -28.83          26.29          43.18          51.96          -10.3           4.44         -153.2         -18.31           59.8          46.63          37.78
     1.109              -28.82          26.29          43.17          51.95         -10.29          4.422         -153.2         -18.26          59.73          46.62          37.79
     1.157              -28.81          26.28          43.16          51.93         -10.28          4.403         -153.2         -18.21          59.65          46.62          37.79
     1.205              -28.81          26.28          43.15          51.91         -10.26          4.382         -153.2         -18.16          59.56          46.61           37.8
     1.254               -28.8          26.28          43.13          51.89         -10.25          4.358         -153.2         -18.09          59.47          46.61           37.8
     1.302              -28.78          26.27          43.12          51.86         -10.23          4.331         -153.2         -18.02          59.36           46.6          37.81
      1.35              -28.77          26.27           43.1          51.84          -10.2          4.301         -153.2         -17.94          59.23           46.6          37.82
     1.398              -28.76          26.26          43.08          51.81         -10.18          4.267         -153.1         -17.85          59.09          46.59          37.83
     1.446              -28.74          26.25          43.05          51.77         -10.15          4.227         -153.1         -17.75          58.93          46.58          37.84
     1.495              -28.72          26.25          43.03          51.73         -10.12          4.182         -153.1         -17.63          58.74          46.57          37.86
     1.543               -28.7          26.24          42.99          51.68         -10.08           4.13         -153.1          -17.5          58.53          46.56          37.87
     1.591              -28.68          26.23          42.96          51.63         -10.04           4.07         -153.0         -17.34          58.28          46.55          37.89
     1.639              -28.65          26.22          42.91          51.57         -9.987          3.999         -153.0         -17.16          57.99          46.53          37.91
     1.688              -28.62           26.2          42.86          51.49         -9.927          3.916         -152.9         -16.94          57.65          46.51          37.93
     1.736              -28.58          26.19           42.8           51.4         -9.856          3.816         -152.9         -16.68          57.24          46.49          37.96
     1.784              -28.53          26.17          42.73          51.29          -9.77          3.698         -152.8         -16.37          56.76          46.47           38.0
     1.832              -28.47          26.14          42.64          51.17         -9.667          3.554         -152.8         -15.99          56.17          46.43          38.04
      1.88               -28.4          26.12          42.53          51.01          -9.54          3.378         -152.7         -15.54          55.45           46.4          38.09
     1.929              -28.31          26.08           42.4          50.81         -9.385          3.161         -152.5         -14.97          54.56          46.35          38.16
     1.977              -28.21          26.04          42.23          50.57          -9.19          2.891         -152.4         -14.26          53.45          46.29          38.24
     2.025              -28.07          25.98          42.03          50.27         -8.945           2.55         -152.2         -13.38          52.05          46.22          38.34
